<?xml version="1.0" encoding="utf-8"?>
<!-- Svg Vector Icon -->
<!DOCTYPE svg PUBLIC "-//W3C//DTD SVG 1.1//EN" "http://www.w3.org/Graphics/SVG/1.1/DTD/svg11.dtd">
<svg version="1.1" xmlns="http://www.w3.org/2000/svg" xmlns:xlink="http://www.w3.org/1999/xlink" x="0px" y="0px" viewBox="0 0 1000 1000" enable-background="new 0 0 1000 1000" xml:space="preserve">
<metadata> Svg Vector Icons </metadata>
<g><path d="M148.8,287h96.5v102c0,14.6,11.9,26.5,26.5,26.5c14.6,0,26.5-11.9,26.5-26.5V287h95.7c14.6,0,26.5-11.9,26.5-26.5c0-14.6-11.9-26.5-26.5-26.5h-95.7v-90.1c0-14.6-11.9-26.5-26.5-26.5c-14.6,0-26.5,11.9-26.5,26.5V234h-96.5c-14.6,0-26.5,11.9-26.5,26.5C122.2,275.2,134.1,287,148.8,287z"/><path d="M942,9.6l-1.6-0.2H59.6L58,9.6c-27.3,2.8-48,25.1-48,52.1v877.6c0,28.2,23,51.2,51.2,51.2h877.6c28.2,0,51.2-23,51.2-51.2V61.7C990,34.8,969.4,12.4,942,9.6z M925.2,464.1H532.4V74.3h392.8V464.1z M467.6,74.3v389.9H74.8V74.3H467.6z M74.8,528.9h392.8v396.9H74.8V528.9z M532.4,925.7V528.9h392.8v396.9H532.4z"/><path d="M605.5,287h245.2c14.6,0,26.5-11.9,26.5-26.5c0-14.6-11.9-26.5-26.5-26.5H605.5c-14.6,0-26.5,11.9-26.5,26.5C579,275.2,590.9,287,605.5,287z"/><path d="M378.8,797.4l-72.1-72.1l67.7-67.7c10.4-10.4,10.4-27.1,0-37.5c-10.4-10.4-27.1-10.4-37.5,0l-67.7,67.7l-63.7-63.7c-10.4-10.4-27.1-10.4-37.5,0c-10.4,10.4-10.4,27.1,0,37.5l63.7,63.7l-68.2,68.2c-10.4,10.4-10.4,27.1,0,37.5c10.4,10.4,27.1,10.4,37.5,0l68.2-68.2l72.1,72.1c10.4,10.4,27.1,10.4,37.5,0C389.1,824.6,389.1,807.8,378.8,797.4z"/><path d="M850.7,628.7H605.5c-14.6,0-26.5,11.9-26.5,26.5c0,14.6,11.9,26.5,26.5,26.5h245.2c14.6,0,26.5-11.9,26.5-26.5C877.2,640.5,865.4,628.7,850.7,628.7z"/><path d="M850.7,772.8H605.5c-14.6,0-26.5,11.9-26.5,26.5c0,14.6,11.9,26.5,26.5,26.5h245.2c14.6,0,26.5-11.9,26.5-26.5C877.2,784.7,865.4,772.8,850.7,772.8z"/></g>
</svg>